PathFileType	4	(X/Y/Z)	jw_hip_rstar.trc	
DataRate	CameraRate	NumFrames	NumMarkers	Units	OrigDataRate	OrigDataStartFrame	OrigNumFrames	
120.00	120.00	15	8	mm	120.00	412	1647	
Frame#	Time	RAsis			LAsis			RPsis			LPsis			RThighSuperior			RThighInferior			RThighLateral			RPatella			
		X1	Y1	Z1	X2	Y2	Z2	X3	Y3	Z3	X4	Y4	Z4	X5	Y5	Z5	X6	Y6	Z6	X7	Y7	Z7	X8	Y8	Z8	

412	3.425	-411.12946	190.50511	1037.60360	-156.29965	117.26788	993.40137	-246.91087	357.73553	967.54144	-188.05609	340.92395	968.79608	-451.27747	195.62508	823.24792	-438.20795	68.54137	609.96112	-411.17133	61.75973	711.04346	-395.99493	22.77098	527.71625 
413	3.433	-411.17896	191.05843	1037.38990	-156.34521	117.66782	993.11871	-246.47969	358.09555	967.68250	-187.99960	341.05093	968.83569	-451.16669	197.20894	822.87219	-439.05624	70.59727	609.49988	-412.02628	63.36763	710.75702	-397.09106	24.64379	527.45923 
414	3.442	-410.91980	192.29974	1037.22010	-156.40302	118.02058	992.84570	-245.72249	358.71100	967.93573	-187.89699	341.27756	968.70984	-451.19913	198.62093	822.67291	-439.88809	72.29939	609.32373	-412.93604	64.62259	710.33923	-397.81635	26.04082	527.49347 
415	3.450	-410.87170	192.88861	1036.82980	-156.53897	118.32365	992.62231	-245.22470	359.11096	968.06628	-187.75656	341.52515	968.57275	-451.48230	200.14240	822.81317	-440.54547	73.98728	608.88110	-413.63354	66.04823	710.09875	-398.79218	27.53895	527.33575 
416	3.458	-410.89877	193.34479	1036.49380	-156.66972	118.52008	992.42316	-244.83070	359.43857	968.17810	-187.72340	341.61679	968.50677	-451.05679	201.11591	822.41644	-441.28241	75.54929	608.75378	-414.24368	67.18834	709.70831	-399.54013	28.92404	527.09290 
417	3.467	-410.88495	193.95329	1036.18620	-156.95511	118.79994	992.03546	-244.29953	359.79922	968.30579	-187.67169	341.74664	968.46240	-450.99805	202.01497	822.27454	-441.99216	76.83946	608.47369	-414.70840	68.24326	709.41736	-400.28259	30.29264	526.83209 
418	3.475	-410.90256	194.49284	1035.96230	-156.95972	118.97829	991.96979	-243.87354	360.17197	968.39380	-187.80489	341.49728	968.39343	-451.02905	202.75584	822.38519	-442.70969	78.11053	608.31030	-415.09338	69.30961	709.20520	-401.13315	31.61356	526.58478 
419	3.483	-411.01242	195.00690	1035.93260	-156.97769	119.22731	991.80145	-243.58955	360.37418	968.43457	-187.71936	341.61676	968.37604	-450.92563	203.73172	822.53839	-442.88403	79.30342	607.96729	-415.33737	70.29262	708.93329	-401.71753	32.74342	526.48907 
420	3.492	-411.03030	195.46225	1035.71550	-157.11987	119.39024	991.67078	-243.34668	360.57712	968.46637	-187.56001	341.77594	968.40796	-451.05978	204.47710	822.73956	-443.66623	80.61247	607.99146	-415.49747	71.18496	708.65332	-402.46072	33.67012	526.25348 
421	3.500	-411.10709	195.86720	1035.69420	-157.19318	119.53350	991.63989	-242.97763	360.76239	968.60022	-187.32918	341.89441	968.49890	-451.35739	205.15804	823.10242	-443.52914	82.45566	607.66235	-415.61945	72.08347	708.47260	-403.42935	35.00585	526.41809 
422	3.508	-411.16632	196.19884	1035.57670	-157.30058	119.64555	991.54382	-242.63710	360.95618	968.76160	-187.11023	342.05521	968.61890	-451.30444	205.61348	823.18176	-444.10297	82.79023	607.35681	-415.97949	73.01975	708.19873	-403.99921	35.98313	526.24310 
423	3.517	-411.19403	196.51027	1035.57410	-157.40181	119.72933	991.53503	-242.28770	361.17493	968.89087	-186.80151	342.20111	968.74237	-450.97397	205.81029	823.03900	-444.73584	83.85171	607.55945	-416.05551	73.98880	707.96570	-404.52612	37.14471	526.18970 
424	3.525	-411.15833	196.76025	1035.59190	-157.47223	119.77135	991.50885	-242.01802	361.33331	969.00769	-186.35915	342.44101	969.02002	-451.00336	206.25781	823.38104	-444.91241	84.78715	607.38336	-415.97952	74.65112	707.79694	-405.11987	38.06804	526.05280 
425	3.533	-411.08047	197.00386	1035.65650	-157.55879	119.88339	991.43677	-241.87437	361.47205	969.08112	-185.61967	342.82620	969.49176	-450.99200	206.66312	823.74786	-445.04892	85.61037	607.33051	-415.94534	75.24663	707.66168	-405.49280	38.72099	525.96094 
426	3.542	-411.01205	197.22525	1035.77990	-157.64079	119.89997	991.44745	-241.74350	361.61850	969.25110	-184.73169	343.29236	970.06299	-451.93594	206.95221	824.35773	-445.25226	86.28014	607.51471	-415.83914	75.77058	707.74475	-406.15500	39.22429	525.97058 
